<svg width="214" height="55" viewBox="0 0 214 55" fill="none" xmlns="http://www.w3.org/2000/svg">
<path d="M77.96 23.3247C77.96 23.0073 77.9315 22.7184 77.8745 22.458C77.8175 22.1976 77.6955 21.9575 77.5083 21.7378C77.3293 21.5181 77.0648 21.2983 76.7148 21.0786C76.373 20.8589 75.9255 20.631 75.3721 20.395C74.7129 20.1183 74.0741 19.8254 73.4556 19.5161C72.8371 19.1987 72.2796 18.8325 71.7832 18.4175C71.2868 18.0024 70.8921 17.5142 70.5991 16.9526C70.3143 16.383 70.1719 15.7157 70.1719 14.9507C70.1719 14.202 70.3062 13.5225 70.5747 12.9121C70.8514 12.3018 71.242 11.7809 71.7466 11.3496C72.2511 10.9102 72.8411 10.5724 73.5166 10.3364C74.2002 10.1004 74.9611 9.98242 75.7993 9.98242C76.9386 9.98242 77.9233 10.2184 78.7534 10.6904C79.5916 11.1624 80.2386 11.8094 80.6943 12.6313C81.1582 13.4533 81.3901 14.3973 81.3901 15.4634H77.8257C77.8257 14.9588 77.7524 14.5153 77.606 14.1328C77.4676 13.7422 77.2438 13.437 76.9346 13.2173C76.6253 12.9976 76.2266 12.8877 75.7383 12.8877C75.2826 12.8877 74.9041 12.9813 74.603 13.1685C74.3101 13.3475 74.0903 13.5957 73.9438 13.9131C73.8055 14.2223 73.7363 14.5723 73.7363 14.9629C73.7363 15.2559 73.8055 15.5203 73.9438 15.7563C74.0903 15.9842 74.2897 16.1917 74.542 16.3789C74.7943 16.5579 75.0913 16.7329 75.4331 16.9038C75.783 17.0747 76.1655 17.2415 76.5806 17.4043C77.3862 17.7217 78.0983 18.0716 78.7168 18.4541C79.3353 18.8285 79.8521 19.2516 80.2671 19.7236C80.6821 20.1875 80.9954 20.7124 81.207 21.2983C81.4186 21.8843 81.5244 22.5516 81.5244 23.3003C81.5244 24.0409 81.3942 24.7163 81.1338 25.3267C80.8815 25.9289 80.5112 26.4497 80.0229 26.8892C79.5347 27.3205 78.9447 27.6541 78.2529 27.8901C77.5693 28.1261 76.8044 28.2441 75.958 28.2441C75.1361 28.2441 74.3589 28.1302 73.6265 27.9023C72.894 27.6663 72.2471 27.3123 71.6855 26.8403C71.1322 26.3602 70.6968 25.7539 70.3794 25.0215C70.062 24.2809 69.9033 23.4061 69.9033 22.397H73.48C73.48 22.9341 73.5329 23.3939 73.6387 23.7764C73.7445 24.1507 73.9072 24.4518 74.127 24.6797C74.3467 24.8994 74.6152 25.0662 74.9326 25.1802C75.2581 25.286 75.6284 25.3389 76.0435 25.3389C76.5155 25.3389 76.8898 25.2493 77.1665 25.0703C77.4513 24.8913 77.6548 24.6512 77.7769 24.3501C77.8989 24.049 77.96 23.7072 77.96 23.3247ZM87.2129 17.5264V28H83.7827V14.792H87.0054L87.2129 17.5264ZM86.7246 20.9443L85.7847 20.9688C85.7684 20.041 85.8498 19.1865 86.0288 18.4053C86.2078 17.624 86.4764 16.9445 86.8345 16.3667C87.2007 15.7889 87.6605 15.3413 88.2139 15.0239C88.7673 14.7065 89.4142 14.5479 90.1548 14.5479C90.6349 14.5479 91.0785 14.6374 91.4854 14.8164C91.8923 14.9873 92.2463 15.2599 92.5474 15.6343C92.8485 16.0005 93.0804 16.4806 93.2432 17.0747C93.4059 17.6606 93.4873 18.3646 93.4873 19.1865V28H90.0693V19.6016C90.0693 19.0156 90.0124 18.568 89.8984 18.2588C89.7845 17.9414 89.6217 17.7217 89.4102 17.5996C89.1986 17.4694 88.9382 17.4043 88.6289 17.4043C88.3034 17.4043 88.0186 17.4938 87.7744 17.6729C87.5303 17.8519 87.3309 18.1042 87.1763 18.4297C87.0298 18.7471 86.9159 19.1214 86.8345 19.5527C86.7612 19.984 86.7246 20.4479 86.7246 20.9443ZM93.1577 20.6025L91.9248 20.7612C91.9085 19.8905 91.9858 19.0807 92.1567 18.332C92.3276 17.5752 92.5921 16.916 92.9502 16.3545C93.3083 15.7848 93.7559 15.3413 94.293 15.0239C94.8382 14.7065 95.4689 14.5479 96.1851 14.5479C96.7222 14.5479 97.2104 14.6374 97.6499 14.8164C98.0894 14.9954 98.4637 15.2843 98.7729 15.6831C99.0903 16.0737 99.3304 16.5905 99.4932 17.2334C99.6641 17.8763 99.7495 18.6576 99.7495 19.5771V28H96.3193V19.5894C96.3193 18.9953 96.2624 18.5396 96.1484 18.2222C96.0345 17.9048 95.8717 17.6891 95.6602 17.5752C95.4486 17.4613 95.1963 17.4043 94.9033 17.4043C94.6104 17.4043 94.354 17.4857 94.1343 17.6484C93.9227 17.8112 93.7437 18.0391 93.5972 18.332C93.4507 18.6169 93.3408 18.9546 93.2676 19.3452C93.1943 19.7277 93.1577 20.1468 93.1577 20.6025ZM108.148 24.9604V18.8569C108.148 18.4582 108.099 18.1408 108.001 17.9048C107.912 17.6688 107.774 17.4979 107.586 17.3921C107.407 17.2782 107.188 17.2212 106.927 17.2212C106.634 17.2212 106.39 17.2822 106.195 17.4043C106 17.5264 105.853 17.7013 105.755 17.9292C105.666 18.1571 105.621 18.4297 105.621 18.7471H102.191C102.191 18.1774 102.301 17.6403 102.521 17.1357C102.74 16.623 103.062 16.1755 103.485 15.793C103.916 15.4023 104.429 15.0972 105.023 14.8774C105.617 14.6577 106.284 14.5479 107.025 14.5479C107.904 14.5479 108.685 14.6984 109.369 14.9995C110.052 15.2925 110.593 15.7604 110.992 16.4033C111.391 17.0462 111.59 17.8804 111.59 18.9058V24.7896C111.59 25.5301 111.627 26.1323 111.7 26.5962C111.782 27.0601 111.9 27.4588 112.054 27.7925V28H108.612C108.457 27.6338 108.339 27.1781 108.258 26.6328C108.185 26.0794 108.148 25.522 108.148 24.9604ZM108.563 19.9312L108.575 21.9819H107.318C106.992 21.9819 106.708 22.0348 106.463 22.1406C106.227 22.2464 106.028 22.397 105.865 22.5923C105.702 22.7795 105.58 22.9992 105.499 23.2515C105.426 23.5037 105.389 23.7723 105.389 24.0571C105.389 24.3745 105.434 24.6431 105.523 24.8628C105.613 25.0825 105.747 25.2493 105.926 25.3633C106.105 25.4772 106.317 25.5342 106.561 25.5342C106.935 25.5342 107.261 25.4569 107.538 25.3022C107.814 25.1476 108.018 24.9604 108.148 24.7407C108.286 24.521 108.331 24.3175 108.282 24.1304L109.063 25.4609C108.966 25.762 108.832 26.0754 108.661 26.4009C108.498 26.7264 108.29 27.0275 108.038 27.3042C107.786 27.5809 107.472 27.8088 107.098 27.9878C106.732 28.1587 106.297 28.2441 105.792 28.2441C105.084 28.2441 104.437 28.0814 103.851 27.7559C103.265 27.4303 102.801 26.9746 102.459 26.3887C102.126 25.8027 101.959 25.1069 101.959 24.3013C101.959 23.634 102.065 23.0317 102.276 22.4946C102.496 21.9494 102.822 21.4896 103.253 21.1152C103.684 20.7327 104.229 20.4398 104.889 20.2363C105.548 20.0329 106.321 19.9312 107.208 19.9312H108.563ZM117.535 17.7339V28H114.117V14.792H117.34L117.535 17.7339ZM120.648 14.6943L120.599 18.1001C120.444 18.0675 120.257 18.0431 120.038 18.0269C119.826 18.0106 119.639 18.0024 119.476 18.0024C119.094 18.0024 118.768 18.0635 118.5 18.1855C118.231 18.2995 118.007 18.4744 117.828 18.7104C117.657 18.9383 117.527 19.2231 117.438 19.5649C117.348 19.9067 117.295 20.2933 117.279 20.7246L116.632 20.4805C116.632 19.6178 116.697 18.8285 116.827 18.1123C116.965 17.388 117.169 16.7614 117.438 16.2324C117.706 15.6953 118.028 15.2803 118.402 14.9873C118.784 14.6943 119.216 14.5479 119.696 14.5479C119.859 14.5479 120.029 14.5641 120.208 14.5967C120.396 14.6211 120.542 14.6536 120.648 14.6943ZM128.766 14.792V17.3677H122.027V14.792H128.766ZM123.578 11.5327H126.983V23.9717C126.983 24.3379 127.02 24.6187 127.093 24.814C127.167 25.0093 127.276 25.1476 127.423 25.229C127.577 25.3022 127.781 25.3389 128.033 25.3389C128.204 25.3389 128.363 25.3307 128.509 25.3145C128.656 25.29 128.766 25.2656 128.839 25.2412V27.9146C128.57 28.0203 128.285 28.1017 127.984 28.1587C127.691 28.2157 127.341 28.2441 126.935 28.2441C126.251 28.2441 125.657 28.1139 125.152 27.8535C124.656 27.5931 124.269 27.1781 123.993 26.6084C123.716 26.0306 123.578 25.2738 123.578 24.3379V11.5327ZM141.241 28H138.104L138.128 25.0459H141.241C142.104 25.0459 142.775 24.8913 143.255 24.582C143.736 24.2728 144.073 23.7845 144.269 23.1172C144.472 22.4499 144.574 21.575 144.574 20.4927V17.7217C144.574 16.8997 144.521 16.2039 144.415 15.6343C144.309 15.0565 144.13 14.5926 143.878 14.2427C143.626 13.8846 143.288 13.6201 142.865 13.4492C142.442 13.2783 141.917 13.1929 141.29 13.1929H138.043V10.2266H141.29C142.315 10.2266 143.247 10.3934 144.085 10.7271C144.924 11.0607 145.644 11.549 146.246 12.1919C146.848 12.8267 147.312 13.612 147.638 14.5479C147.963 15.4837 148.126 16.5498 148.126 17.7461V20.4927C148.126 21.6971 147.963 22.7632 147.638 23.6909C147.312 24.6187 146.848 25.404 146.246 26.0469C145.652 26.6816 144.932 27.1659 144.085 27.4995C143.239 27.8332 142.291 28 141.241 28ZM140.179 10.2266V28H136.603V10.2266H140.179ZM155.89 28.2441C154.986 28.2441 154.185 28.1058 153.485 27.8291C152.793 27.5524 152.207 27.1536 151.727 26.6328C151.247 26.1038 150.881 25.465 150.628 24.7163C150.376 23.9676 150.25 23.1131 150.25 22.1528V21.0664C150.25 19.9922 150.372 19.0522 150.616 18.2466C150.86 17.4328 151.206 16.7492 151.654 16.1958C152.101 15.6424 152.651 15.2314 153.302 14.9629C153.961 14.6862 154.706 14.5479 155.536 14.5479C156.366 14.5479 157.094 14.6862 157.721 14.9629C158.355 15.2314 158.88 15.6383 159.295 16.1836C159.71 16.7207 160.024 17.388 160.235 18.1855C160.447 18.9831 160.553 19.9108 160.553 20.9688V22.5312H151.703V20.1265H157.196V19.8213C157.196 19.2842 157.139 18.8366 157.025 18.4785C156.911 18.1123 156.732 17.8397 156.488 17.6606C156.244 17.4816 155.918 17.3921 155.511 17.3921C155.169 17.3921 154.881 17.4613 154.645 17.5996C154.409 17.738 154.221 17.9536 154.083 18.2466C153.945 18.5396 153.843 18.922 153.778 19.394C153.713 19.8579 153.68 20.4154 153.68 21.0664V22.1528C153.68 22.7632 153.733 23.2759 153.839 23.6909C153.945 24.0978 154.099 24.4315 154.303 24.6919C154.514 24.9442 154.771 25.1273 155.072 25.2412C155.373 25.347 155.723 25.3999 156.122 25.3999C156.724 25.3999 157.265 25.2941 157.745 25.0825C158.233 24.8628 158.648 24.5658 158.99 24.1914L160.357 26.2666C160.121 26.5758 159.796 26.8851 159.381 27.1943C158.966 27.5036 158.469 27.7559 157.892 27.9512C157.314 28.1465 156.646 28.2441 155.89 28.2441ZM166.253 25.3633L168.377 14.792H171.942L168.316 28H166.18L166.253 25.3633ZM164.996 14.792L167.157 25.3755L167.193 28H165.045L161.419 14.792H164.996ZM177.179 14.792V28H173.749V14.792H177.179ZM173.59 11.374C173.59 10.8451 173.757 10.4097 174.09 10.0679C174.432 9.71794 174.888 9.54297 175.458 9.54297C176.035 9.54297 176.491 9.71794 176.825 10.0679C177.158 10.4097 177.325 10.8451 177.325 11.374C177.325 11.8949 177.154 12.3302 176.812 12.6802C176.479 13.022 176.031 13.1929 175.47 13.1929C174.892 13.1929 174.432 13.022 174.09 12.6802C173.757 12.3302 173.59 11.8949 173.59 11.374ZM184.662 25.3999C184.979 25.3999 185.252 25.3348 185.479 25.2046C185.715 25.0744 185.895 24.8628 186.017 24.5698C186.139 24.2769 186.204 23.8984 186.212 23.4346H189.422C189.422 24.4274 189.211 25.286 188.788 26.0103C188.373 26.7264 187.811 27.2798 187.103 27.6704C186.403 28.0529 185.61 28.2441 184.723 28.2441C183.836 28.2441 183.062 28.1017 182.403 27.8169C181.744 27.5321 181.199 27.117 180.768 26.5718C180.344 26.0265 180.023 25.3633 179.803 24.582C179.592 23.7926 179.486 22.8893 179.486 21.8721V20.9077C179.486 19.9067 179.592 19.0116 179.803 18.2222C180.023 17.4328 180.344 16.7655 180.768 16.2202C181.199 15.675 181.74 15.2599 182.391 14.9751C183.05 14.6903 183.823 14.5479 184.71 14.5479C185.663 14.5479 186.489 14.7472 187.188 15.146C187.888 15.5366 188.434 16.1144 188.824 16.8794C189.223 17.6444 189.422 18.5884 189.422 19.7114H186.212C186.204 19.2069 186.143 18.7878 186.029 18.4541C185.923 18.1123 185.756 17.8519 185.528 17.6729C185.309 17.4857 185.016 17.3921 184.649 17.3921C184.267 17.3921 183.958 17.4735 183.722 17.6362C183.494 17.7909 183.319 18.0187 183.197 18.3198C183.083 18.6128 183.006 18.979 182.965 19.4185C182.924 19.8579 182.904 20.3543 182.904 20.9077V21.8721C182.904 22.4661 182.92 22.9829 182.953 23.4224C182.993 23.8537 183.071 24.2199 183.185 24.521C183.307 24.814 183.482 25.0337 183.709 25.1802C183.945 25.3267 184.263 25.3999 184.662 25.3999ZM196.71 28.2441C195.807 28.2441 195.005 28.1058 194.305 27.8291C193.613 27.5524 193.028 27.1536 192.547 26.6328C192.067 26.1038 191.701 25.465 191.449 24.7163C191.196 23.9676 191.07 23.1131 191.07 22.1528V21.0664C191.07 19.9922 191.192 19.0522 191.437 18.2466C191.681 17.4328 192.027 16.7492 192.474 16.1958C192.922 15.6424 193.471 15.2314 194.122 14.9629C194.781 14.6862 195.526 14.5479 196.356 14.5479C197.186 14.5479 197.914 14.6862 198.541 14.9629C199.176 15.2314 199.701 15.6383 200.116 16.1836C200.531 16.7207 200.844 17.388 201.056 18.1855C201.267 18.9831 201.373 19.9108 201.373 20.9688V22.5312H192.523V20.1265H198.016V19.8213C198.016 19.2842 197.959 18.8366 197.845 18.4785C197.731 18.1123 197.552 17.8397 197.308 17.6606C197.064 17.4816 196.738 17.3921 196.332 17.3921C195.99 17.3921 195.701 17.4613 195.465 17.5996C195.229 17.738 195.042 17.9536 194.903 18.2466C194.765 18.5396 194.663 18.922 194.598 19.394C194.533 19.8579 194.5 20.4154 194.5 21.0664V22.1528C194.5 22.7632 194.553 23.2759 194.659 23.6909C194.765 24.0978 194.92 24.4315 195.123 24.6919C195.335 24.9442 195.591 25.1273 195.892 25.2412C196.193 25.347 196.543 25.3999 196.942 25.3999C197.544 25.3999 198.085 25.2941 198.565 25.0825C199.054 24.8628 199.469 24.5658 199.811 24.1914L201.178 26.2666C200.942 26.5758 200.616 26.8851 200.201 27.1943C199.786 27.5036 199.29 27.7559 198.712 27.9512C198.134 28.1465 197.467 28.2441 196.71 28.2441Z" fill="#F2F5F7"/>
<path d="M72.5664 45.3086L74.2891 39.6602H75.8008L73.2578 46.9668C73.1992 47.123 73.123 47.293 73.0293 47.4766C72.9355 47.6602 72.8125 47.834 72.6602 47.998C72.5117 48.166 72.3262 48.3008 72.1035 48.4023C71.8809 48.5078 71.6113 48.5605 71.2949 48.5605C71.1699 48.5605 71.0488 48.5488 70.9316 48.5254C70.8184 48.5059 70.7109 48.4844 70.6094 48.4609L70.6035 47.3828C70.6426 47.3867 70.6895 47.3906 70.7441 47.3945C70.8027 47.3984 70.8496 47.4004 70.8848 47.4004C71.1191 47.4004 71.3145 47.3711 71.4707 47.3125C71.627 47.2578 71.7539 47.168 71.8516 47.043C71.9531 46.918 72.0391 46.75 72.1094 46.5391L72.5664 45.3086ZM71.5938 39.6602L73.0996 44.4062L73.3516 45.8945L72.373 46.1465L70.0703 39.6602H71.5938ZM80.377 44.2891L82.2637 39.6602H83.4883L80.8574 46H79.8965L77.2715 39.6602H78.4961L80.377 44.2891ZM78.1328 39.6602V46H76.7207V39.6602H78.1328ZM82.6211 46V39.6602H84.0391V46H82.6211ZM89.9512 42.3086V43.4219H86.6699V42.3086H89.9512ZM87.0801 39.6602V46H85.668V39.6602H87.0801ZM90.9707 39.6602V46H89.5586V39.6602H90.9707ZM93.5254 41.6758H95.3945C95.9414 41.6758 96.4062 41.7676 96.7891 41.9512C97.1719 42.1348 97.4629 42.3906 97.6621 42.7188C97.8652 43.043 97.9668 43.4141 97.9668 43.832C97.9668 44.1406 97.9102 44.4277 97.7969 44.6934C97.6836 44.9551 97.5156 45.1836 97.293 45.3789C97.0742 45.5742 96.8047 45.7266 96.4844 45.8359C96.168 45.9453 95.8047 46 95.3945 46H92.5879V39.6602H94.0059V44.8809H95.3945C95.6758 44.8809 95.9004 44.832 96.0684 44.7344C96.2363 44.6367 96.3574 44.5098 96.4316 44.3535C96.5098 44.1973 96.5488 44.0312 96.5488 43.8555C96.5488 43.6758 96.5098 43.5059 96.4316 43.3457C96.3574 43.1855 96.2363 43.0547 96.0684 42.9531C95.9004 42.8516 95.6758 42.8008 95.3945 42.8008H93.5254V41.6758ZM100.463 39.6602V46H99.0508V39.6602H100.463ZM104.928 46.1172C104.459 46.1172 104.035 46.041 103.656 45.8887C103.281 45.7324 102.961 45.5156 102.695 45.2383C102.434 44.9609 102.232 44.6348 102.092 44.2598C101.951 43.8848 101.881 43.4805 101.881 43.0469V42.8125C101.881 42.3164 101.953 41.8672 102.098 41.4648C102.242 41.0625 102.443 40.7188 102.701 40.4336C102.959 40.1445 103.264 39.9238 103.615 39.7715C103.967 39.6191 104.348 39.543 104.758 39.543C105.211 39.543 105.607 39.6191 105.947 39.7715C106.287 39.9238 106.568 40.1387 106.791 40.416C107.018 40.6895 107.186 41.0156 107.295 41.3945C107.408 41.7734 107.465 42.1914 107.465 42.6484V43.252H102.566V42.2383H106.07V42.127C106.062 41.873 106.012 41.6348 105.918 41.4121C105.828 41.1895 105.689 41.0098 105.502 40.873C105.314 40.7363 105.064 40.668 104.752 40.668C104.518 40.668 104.309 40.7188 104.125 40.8203C103.945 40.918 103.795 41.0605 103.674 41.248C103.553 41.4355 103.459 41.6621 103.393 41.9277C103.33 42.1895 103.299 42.4844 103.299 42.8125V43.0469C103.299 43.3242 103.336 43.582 103.41 43.8203C103.488 44.0547 103.602 44.2598 103.75 44.4355C103.898 44.6113 104.078 44.75 104.289 44.8516C104.5 44.9492 104.74 44.998 105.01 44.998C105.35 44.998 105.652 44.9297 105.918 44.793C106.184 44.6562 106.414 44.4629 106.609 44.2129L107.354 44.9336C107.217 45.1328 107.039 45.3242 106.82 45.5078C106.602 45.6875 106.334 45.834 106.018 45.9473C105.705 46.0605 105.342 46.1172 104.928 46.1172ZM114.496 39.6602V46H113.078V39.6602H114.496ZM116.576 39.6602V40.7734H111.033V39.6602H116.576ZM119.881 46.1172C119.412 46.1172 118.988 46.041 118.609 45.8887C118.234 45.7324 117.914 45.5156 117.648 45.2383C117.387 44.9609 117.186 44.6348 117.045 44.2598C116.904 43.8848 116.834 43.4805 116.834 43.0469V42.8125C116.834 42.3164 116.906 41.8672 117.051 41.4648C117.195 41.0625 117.396 40.7188 117.654 40.4336C117.912 40.1445 118.217 39.9238 118.568 39.7715C118.92 39.6191 119.301 39.543 119.711 39.543C120.164 39.543 120.561 39.6191 120.9 39.7715C121.24 39.9238 121.521 40.1387 121.744 40.416C121.971 40.6895 122.139 41.0156 122.248 41.3945C122.361 41.7734 122.418 42.1914 122.418 42.6484V43.252H117.52V42.2383H121.023V42.127C121.016 41.873 120.965 41.6348 120.871 41.4121C120.781 41.1895 120.643 41.0098 120.455 40.873C120.268 40.7363 120.018 40.668 119.705 40.668C119.471 40.668 119.262 40.7188 119.078 40.8203C118.898 40.918 118.748 41.0605 118.627 41.248C118.506 41.4355 118.412 41.6621 118.346 41.9277C118.283 42.1895 118.252 42.4844 118.252 42.8125V43.0469C118.252 43.3242 118.289 43.582 118.363 43.8203C118.441 44.0547 118.555 44.2598 118.703 44.4355C118.852 44.6113 119.031 44.75 119.242 44.8516C119.453 44.9492 119.693 44.998 119.963 44.998C120.303 44.998 120.605 44.9297 120.871 44.793C121.137 44.6562 121.367 44.4629 121.562 44.2129L122.307 44.9336C122.17 45.1328 121.992 45.3242 121.773 45.5078C121.555 45.6875 121.287 45.834 120.971 45.9473C120.658 46.0605 120.295 46.1172 119.881 46.1172ZM124.598 39.6602L125.805 41.7637L127.035 39.6602H128.588L126.666 42.7715L128.664 46H127.111L125.822 43.8086L124.533 46H122.975L124.967 42.7715L123.051 39.6602H124.598ZM133.885 42.3086V43.4219H130.604V42.3086H133.885ZM131.014 39.6602V46H129.602V39.6602H131.014ZM134.904 39.6602V46H133.492V39.6602H134.904ZM136.141 42.9004V42.7656C136.141 42.3086 136.207 41.8848 136.34 41.4941C136.473 41.0996 136.664 40.7578 136.914 40.4688C137.168 40.1758 137.477 39.9492 137.84 39.7891C138.207 39.625 138.621 39.543 139.082 39.543C139.547 39.543 139.961 39.625 140.324 39.7891C140.691 39.9492 141.002 40.1758 141.256 40.4688C141.51 40.7578 141.703 41.0996 141.836 41.4941C141.969 41.8848 142.035 42.3086 142.035 42.7656V42.9004C142.035 43.3574 141.969 43.7812 141.836 44.1719C141.703 44.5625 141.51 44.9043 141.256 45.1973C141.002 45.4863 140.693 45.7129 140.33 45.877C139.967 46.0371 139.555 46.1172 139.094 46.1172C138.629 46.1172 138.213 46.0371 137.846 45.877C137.482 45.7129 137.174 45.4863 136.92 45.1973C136.666 44.9043 136.473 44.5625 136.34 44.1719C136.207 43.7812 136.141 43.3574 136.141 42.9004ZM137.553 42.7656V42.9004C137.553 43.1855 137.582 43.4551 137.641 43.709C137.699 43.9629 137.791 44.1855 137.916 44.377C138.041 44.5684 138.201 44.7188 138.396 44.8281C138.592 44.9375 138.824 44.9922 139.094 44.9922C139.355 44.9922 139.582 44.9375 139.773 44.8281C139.969 44.7188 140.129 44.5684 140.254 44.377C140.379 44.1855 140.471 43.9629 140.529 43.709C140.592 43.4551 140.623 43.1855 140.623 42.9004V42.7656C140.623 42.4844 140.592 42.2188 140.529 41.9688C140.471 41.7148 140.377 41.4902 140.248 41.2949C140.123 41.0996 139.963 40.9473 139.768 40.8379C139.576 40.7246 139.348 40.668 139.082 40.668C138.816 40.668 138.586 40.7246 138.391 40.8379C138.199 40.9473 138.041 41.0996 137.916 41.2949C137.791 41.4902 137.699 41.7148 137.641 41.9688C137.582 42.2188 137.553 42.4844 137.553 42.7656ZM147.385 39.6602V40.7852H144.291V39.6602H147.385ZM148.492 39.6602V46H147.08V39.6602H148.492ZM143.945 39.6602H145.34L145.17 42.7949C145.146 43.2598 145.1 43.6699 145.029 44.0254C144.963 44.377 144.873 44.6797 144.76 44.9336C144.646 45.1836 144.508 45.3867 144.344 45.543C144.18 45.6992 143.988 45.8145 143.77 45.8887C143.551 45.9629 143.305 46 143.031 46H142.592L142.586 44.8398L142.809 44.8223C142.953 44.8105 143.078 44.7734 143.184 44.7109C143.289 44.6445 143.379 44.5508 143.453 44.4297C143.531 44.3086 143.594 44.1523 143.641 43.9609C143.691 43.7695 143.73 43.543 143.758 43.2812C143.789 43.0195 143.812 42.7148 143.828 42.3672L143.945 39.6602ZM149.723 42.9004V42.7656C149.723 42.3086 149.789 41.8848 149.922 41.4941C150.055 41.0996 150.246 40.7578 150.496 40.4688C150.75 40.1758 151.059 39.9492 151.422 39.7891C151.789 39.625 152.203 39.543 152.664 39.543C153.129 39.543 153.543 39.625 153.906 39.7891C154.273 39.9492 154.584 40.1758 154.838 40.4688C155.092 40.7578 155.285 41.0996 155.418 41.4941C155.551 41.8848 155.617 42.3086 155.617 42.7656V42.9004C155.617 43.3574 155.551 43.7812 155.418 44.1719C155.285 44.5625 155.092 44.9043 154.838 45.1973C154.584 45.4863 154.275 45.7129 153.912 45.877C153.549 46.0371 153.137 46.1172 152.676 46.1172C152.211 46.1172 151.795 46.0371 151.428 45.877C151.064 45.7129 150.756 45.4863 150.502 45.1973C150.248 44.9043 150.055 44.5625 149.922 44.1719C149.789 43.7812 149.723 43.3574 149.723 42.9004ZM151.135 42.7656V42.9004C151.135 43.1855 151.164 43.4551 151.223 43.709C151.281 43.9629 151.373 44.1855 151.498 44.377C151.623 44.5684 151.783 44.7188 151.979 44.8281C152.174 44.9375 152.406 44.9922 152.676 44.9922C152.938 44.9922 153.164 44.9375 153.355 44.8281C153.551 44.7188 153.711 44.5684 153.836 44.377C153.961 44.1855 154.053 43.9629 154.111 43.709C154.174 43.4551 154.205 43.1855 154.205 42.9004V42.7656C154.205 42.4844 154.174 42.2188 154.111 41.9688C154.053 41.7148 153.959 41.4902 153.83 41.2949C153.705 41.0996 153.545 40.9473 153.35 40.8379C153.158 40.7246 152.93 40.668 152.664 40.668C152.398 40.668 152.168 40.7246 151.973 40.8379C151.781 40.9473 151.623 41.0996 151.498 41.2949C151.373 41.4902 151.281 41.7148 151.223 41.9688C151.164 42.2188 151.135 42.4844 151.135 42.7656ZM161.02 39.6602V40.7852H158.254V46H156.842V39.6602H161.02ZM163.299 43.9375L165.789 39.6602H167.201V46H165.789V41.7168L163.299 46H161.887V39.6602H163.299V43.9375ZM170.154 43.9375L172.645 39.6602H174.057V46H172.645V41.7168L170.154 46H168.742V39.6602H170.154V43.9375Z" fill="white" fill-opacity="0.7"/>
<path d="M33.9167 14.6664C35.1102 14.6664 36.1185 15.4355 36.498 16.4997H46.002C46.3815 15.4355 47.3899 14.6664 48.5834 14.6664C50.0995 14.6664 51.3334 15.9002 51.3334 17.4164C51.3334 18.9325 50.0995 20.1663 48.5834 20.1663C47.3899 20.1663 46.3815 19.3973 46.002 18.333H36.4971C36.1176 19.3973 35.1093 20.1663 33.9158 20.1663C32.3996 20.1663 31.1658 18.9325 31.1658 17.4164C31.1658 15.9002 32.4005 14.6664 33.9167 14.6664ZM48.5834 18.333C49.0884 18.333 49.5 17.9224 49.5 17.4164C49.5 16.9104 49.0884 16.4997 48.5834 16.4997C48.0783 16.4997 47.6667 16.9104 47.6667 17.4164C47.6667 17.9224 48.0783 18.333 48.5834 18.333ZM33.9167 18.333C34.4218 18.333 34.8334 17.9224 34.8334 17.4164C34.8334 16.9104 34.4218 16.4997 33.9167 16.4997C33.4116 16.4997 33 16.9104 33 17.4164C33 17.9224 33.4116 18.333 33.9167 18.333Z" fill="#00B2FF"/>
<path d="M26.5834 20.335V14.6664C26.5834 14.4226 26.6796 14.1898 26.8519 14.0184L30.5186 10.3517C30.69 10.1794 30.9238 10.0832 31.1667 10.0832H34.0854C34.4649 9.01893 35.4732 8.24986 36.6667 8.24986C38.1829 8.24986 39.4167 9.48368 39.4167 10.9998C39.4167 12.516 38.1829 13.7498 36.6667 13.7498C35.4732 13.7498 34.4649 12.9807 34.0854 11.9165H31.5462L28.4167 15.0459V20.335C29.4809 20.7145 30.25 21.7228 30.25 22.9163C30.25 24.4324 29.0162 25.6662 27.5 25.6662C25.9839 25.6662 24.75 24.4324 24.75 22.9163C24.75 21.7228 25.5191 20.7145 26.5834 20.335ZM36.6667 11.9165C37.1718 11.9165 37.5834 11.5058 37.5834 10.9998C37.5834 10.4938 37.1718 10.0832 36.6667 10.0832C36.1616 10.0832 35.75 10.4938 35.75 10.9998C35.75 11.5058 36.1616 11.9165 36.6667 11.9165ZM27.5 23.8329C28.0051 23.8329 28.4167 23.4223 28.4167 22.9163C28.4167 22.4103 28.0051 21.9996 27.5 21.9996C26.9949 21.9996 26.5834 22.4103 26.5834 22.9163C26.5834 23.4223 26.9949 23.8329 27.5 23.8329Z" fill="#00B2FF"/>
<path d="M10.0833 23.8329C10.5068 23.8329 10.9028 23.9365 11.2613 24.1089L12.8333 22.5368V13.7498C12.8333 13.5059 12.9296 13.2731 13.1019 13.1017L22.2759 3.92785C22.1036 3.56944 22 3.17345 22 2.74995C22 1.23381 23.2338 0 24.75 0C26.2662 0 27.5 1.23381 27.5 2.74995C27.5 4.2661 26.2662 5.49991 24.75 5.49991C24.3265 5.49991 23.9305 5.39633 23.5721 5.224L14.6667 14.1293V22.9163C14.6667 23.1601 14.5704 23.3929 14.3981 23.5644L12.5574 25.405C12.7298 25.7634 12.8333 26.1594 12.8333 26.5829C12.8333 28.099 11.5995 29.3328 10.0833 29.3328C8.56717 29.3328 7.33334 28.099 7.33334 26.5829C7.33334 25.0667 8.56717 23.8329 10.0833 23.8329ZM24.75 3.66661C25.2551 3.66661 25.6667 3.25595 25.6667 2.74995C25.6667 2.24396 25.2551 1.8333 24.75 1.8333C24.2449 1.8333 23.8333 2.24396 23.8333 2.74995C23.8333 3.25595 24.2449 3.66661 24.75 3.66661ZM10.0833 27.4995C10.5884 27.4995 11 27.0889 11 26.5829C11 26.0769 10.5884 25.6662 10.0833 25.6662C9.57826 25.6662 9.16668 26.0769 9.16668 26.5829C9.16668 27.0889 9.57826 27.4995 10.0833 27.4995Z" fill="#00B2FF"/>
<path d="M1.83336 13.0018V9.16651C1.83336 8.92268 1.92961 8.68986 2.10195 8.51844L8.51861 2.10188C8.69003 1.92955 8.92378 1.8333 9.1667 1.8333H13.9187C14.2982 0.769071 15.3065 0 16.5 0C18.0162 0 19.25 1.23381 19.25 2.74995C19.25 4.2661 18.0162 5.49991 16.5 5.49991C15.3065 5.49991 14.2982 4.73084 13.9187 3.66661H9.5462L3.6667 9.54601V13.0018C4.73095 13.3813 5.50003 14.3896 5.50003 15.5831C5.50003 17.0992 4.2662 18.333 2.75003 18.333C1.23386 18.333 3.05176e-05 17.0992 3.05176e-05 15.5831C3.05176e-05 14.3896 0.769114 13.3813 1.83336 13.0018ZM16.5 3.66661C17.0051 3.66661 17.4167 3.25595 17.4167 2.74995C17.4167 2.24396 17.0051 1.8333 16.5 1.8333C15.9949 1.8333 15.5834 2.24396 15.5834 2.74995C15.5834 3.25595 15.9949 3.66661 16.5 3.66661ZM2.75003 16.4997C3.25511 16.4997 3.6667 16.0891 3.6667 15.5831C3.6667 15.0771 3.25511 14.6664 2.75003 14.6664C2.24495 14.6664 1.83336 15.0771 1.83336 15.5831C1.83336 16.0891 2.24495 16.4997 2.75003 16.4997Z" fill="#00B2FF"/>
<path d="M14.6658 49.6688V36.4974C13.6024 36.1179 12.8334 35.1096 12.8334 33.9161C12.8334 32.4 14.0672 31.1662 15.5834 31.1662C16.7769 31.1662 17.7852 31.9352 18.1647 32.9995H27.6687C28.0482 31.9352 29.0565 31.1662 30.25 31.1662C31.4435 31.1662 32.4519 31.9352 32.8314 32.9995H38.1205L41.5259 29.5941C41.3536 29.2357 41.25 28.8397 41.25 28.4162C41.25 26.9001 42.4839 25.6663 44 25.6663C45.5162 25.6663 46.75 26.9001 46.75 28.4162C46.75 29.9324 45.5162 31.1662 44 31.1662C43.5765 31.1662 43.1805 31.0626 42.8221 30.8903L39.1481 34.5642C38.9767 34.7365 38.7429 34.8328 38.5 34.8328H32.8314C32.4519 35.897 31.4435 36.6661 30.25 36.6661C29.0565 36.6661 28.0482 35.897 27.6687 34.8328H18.1638C17.8869 35.6092 17.2755 36.2206 16.4991 36.4974V49.6688C17.5634 50.0483 18.3324 51.0566 18.3324 52.2501C18.3324 53.7662 17.0986 55 15.5824 55C14.0663 55 12.8324 53.7662 12.8324 52.2501C12.8324 51.0566 13.6015 50.0483 14.6658 49.6688ZM44 29.3329C44.5051 29.3329 44.9167 28.9222 44.9167 28.4162C44.9167 27.9102 44.5051 27.4996 44 27.4996C43.4949 27.4996 43.0834 27.9102 43.0834 28.4162C43.0834 28.9222 43.4949 29.3329 44 29.3329ZM30.25 34.8328C30.7551 34.8328 31.1667 34.4221 31.1667 33.9161C31.1667 33.4101 30.7551 32.9995 30.25 32.9995C29.7449 32.9995 29.3334 33.4101 29.3334 33.9161C29.3334 34.4221 29.7449 34.8328 30.25 34.8328ZM15.5834 53.1658C16.0884 53.1658 16.5 52.7551 16.5 52.2492C16.5 51.7432 16.0884 51.3325 15.5834 51.3325C15.0783 51.3325 14.6667 51.7432 14.6667 52.2492C14.6667 52.7551 15.0783 53.1658 15.5834 53.1658ZM15.5834 34.8328C16.0884 34.8328 16.5 34.4221 16.5 33.9161C16.5 33.4101 16.0884 32.9995 15.5834 32.9995C15.0783 32.9995 14.6667 33.4101 14.6667 33.9161C14.6667 34.4221 15.0783 34.8328 15.5834 34.8328Z" fill="#00B2FF"/>
<path d="M19.25 18.5017V15.5831C19.25 15.3392 19.3463 15.1064 19.5186 14.935L30.5259 3.92785C30.3536 3.56944 30.25 3.17345 30.25 2.74995C30.25 1.23381 31.4838 0 33 0C34.1935 0 35.2018 0.769071 35.5813 1.8333H39.4167C39.9227 1.8333 40.3333 2.24305 40.3333 2.74995V5.12041L43.7388 8.52577C44.0972 8.35344 44.4932 8.24986 44.9167 8.24986C46.4328 8.24986 47.6667 9.48368 47.6667 10.9998C47.6667 12.516 46.4328 13.7498 44.9167 13.7498C43.4005 13.7498 42.1667 12.516 42.1667 10.9998C42.1667 10.5763 42.2703 10.1803 42.4426 9.82192L38.7686 6.14798C38.5963 5.97657 38.5 5.74374 38.5 5.49991V3.66661H35.5813C35.2018 4.73084 34.1935 5.49991 33 5.49991C32.5765 5.49991 32.1805 5.39633 31.8221 5.224L21.0833 15.9626V18.5017C22.1476 18.8812 22.9167 19.8895 22.9167 21.083C22.9167 22.5991 21.6828 23.8329 20.1667 23.8329C18.6505 23.8329 17.4167 22.5991 17.4167 21.083C17.4167 19.8895 18.1858 18.8812 19.25 18.5017ZM44.9167 11.9165C45.4218 11.9165 45.8333 11.5058 45.8333 10.9998C45.8333 10.4938 45.4218 10.0832 44.9167 10.0832C44.4116 10.0832 44 10.4938 44 10.9998C44 11.5058 44.4116 11.9165 44.9167 11.9165ZM33 3.66661C33.5051 3.66661 33.9167 3.25595 33.9167 2.74995C33.9167 2.24396 33.5051 1.8333 33 1.8333C32.4949 1.8333 32.0833 2.24396 32.0833 2.74995C32.0833 3.25595 32.4949 3.66661 33 3.66661ZM20.1667 21.9996C20.6718 21.9996 21.0833 21.589 21.0833 21.083C21.0833 20.577 20.6718 20.1663 20.1667 20.1663C19.6616 20.1663 19.25 20.577 19.25 21.083C19.25 21.589 19.6616 21.9996 20.1667 21.9996Z" fill="#00B2FF"/>
<path d="M22 25.6662C23.1935 25.6662 24.2018 26.4353 24.5813 27.4995H35.3705L40.6019 22.2682C40.7733 22.0959 41.0071 21.9996 41.25 21.9996H50.9538L53.1667 19.7868V12.296L46.0946 5.224C45.7362 5.39633 45.3402 5.49991 44.9167 5.49991C43.4005 5.49991 42.1667 4.2661 42.1667 2.74995C42.1667 1.23381 43.4005 0 44.9167 0C46.4328 0 47.6667 1.23381 47.6667 2.74995C47.6667 3.17345 47.5631 3.56944 47.3907 3.92785L54.7314 11.2684C54.9037 11.4398 55 11.6726 55 11.9165V20.1663C55 20.4102 54.9037 20.643 54.7314 20.8144L51.9814 23.5644C51.81 23.7367 51.5762 23.8329 51.3333 23.8329H41.6295L36.3981 29.0643C36.2267 29.2366 35.9929 29.3328 35.75 29.3328H24.5813C24.2018 30.3971 23.1935 31.1661 22 31.1661C20.4838 31.1661 19.25 29.9323 19.25 28.4162C19.25 26.9001 20.4838 25.6662 22 25.6662ZM44.9167 1.8333C44.4116 1.8333 44 2.24396 44 2.74995C44 3.25595 44.4116 3.66661 44.9167 3.66661C45.4217 3.66661 45.8333 3.25595 45.8333 2.74995C45.8333 2.24396 45.4217 1.8333 44.9167 1.8333ZM22 29.3328C22.5051 29.3328 22.9167 28.9222 22.9167 28.4162C22.9167 27.9102 22.5051 27.4995 22 27.4995C21.4949 27.4995 21.0833 27.9102 21.0833 28.4162C21.0833 28.9222 21.4949 29.3328 22 29.3328Z" fill="#00B2FF"/>
<path d="M2.75001 21.9996C3.17351 21.9996 3.56951 22.1032 3.92793 22.2755L7.33334 18.8702V13.5811C6.26909 13.2016 5.50001 12.1933 5.50001 10.9998C5.50001 9.48368 6.73384 8.24986 8.25001 8.24986C9.76618 8.24986 11 9.48368 11 10.9998C11 12.1933 10.2309 13.2016 9.16668 13.5811V19.2497C9.16668 19.4935 9.07043 19.7263 8.89809 19.8978L5.2241 23.5717C5.39643 23.9301 5.50001 24.3261 5.50001 24.7496C5.50001 25.9431 4.73093 26.9514 3.66668 27.3309V28.0367L10.7314 35.1013C10.9038 35.2727 11 35.5056 11 35.7494V36.8347C12.0643 37.2142 12.8333 38.2225 12.8333 39.416C12.8333 40.6095 12.0643 41.6178 11 41.9973V44.1688C12.0643 44.5483 12.8333 45.5567 12.8333 46.7501C12.8333 48.2663 11.5995 49.5001 10.0833 49.5001C8.56718 49.5001 7.33334 48.2663 7.33334 46.7501C7.33334 45.5567 8.10243 44.5483 9.16668 44.1688V41.9973C8.10243 41.6178 7.33334 40.6095 7.33334 39.416C7.33334 38.2225 8.10243 37.2142 9.16668 36.8347V36.1289L2.10193 29.0643C1.92959 28.8929 1.83334 28.66 1.83334 28.4162V27.3309C0.769094 26.9514 1.14441e-05 25.9431 1.14441e-05 24.7496C1.14441e-05 23.2334 1.23384 21.9996 2.75001 21.9996ZM8.25001 11.9165C8.75509 11.9165 9.16668 11.5058 9.16668 10.9998C9.16668 10.4938 8.75509 10.0832 8.25001 10.0832C7.74493 10.0832 7.33334 10.4938 7.33334 10.9998C7.33334 11.5058 7.74493 11.9165 8.25001 11.9165ZM10.0833 47.6659C10.5884 47.6659 11 47.2552 11 46.7492C11 46.2432 10.5884 45.8326 10.0833 45.8326C9.57826 45.8326 9.16668 46.2432 9.16668 46.7492C9.16668 47.2552 9.57826 47.6659 10.0833 47.6659ZM10.0833 40.3327C10.5884 40.3327 11 39.922 11 39.416C11 38.91 10.5884 38.4994 10.0833 38.4994C9.57826 38.4994 9.16668 38.91 9.16668 39.416C9.16668 39.922 9.57826 40.3327 10.0833 40.3327ZM2.75001 25.6662C3.25509 25.6662 3.66668 25.2556 3.66668 24.7496C3.66668 24.2436 3.25509 23.8329 2.75001 23.8329C2.24493 23.8329 1.83334 24.2436 1.83334 24.7496C1.83334 25.2556 2.24493 25.6662 2.75001 25.6662Z" fill="#00B2FF"/>
</svg>
